<!-- Generated by IcoMoon.io -->
<svg version="1.1" xmlns="http://www.w3.org/2000/svg" width="1024" height="1024" viewBox="0 0 1024 1024">
<g id="icomoon-ignore">
</g>
<path fill="#000" d="M938.68 468.019v87.895c0 23.465-18.775 42.665-42.665 43.52h-83.63c-46.080 0-88.32-33.71-92.16-79.79-2.56-26.878 7.68-52.051 25.6-69.545 15.79-16.214 37.55-25.599 61.44-25.599h88.75c23.89 0.853 42.665 20.052 42.665 43.519z"></path>
<path fill="#000" d="M873.39 663.465h-61.015c-81.065 0-149.33-61.010-156.16-138.665-3.84-44.373 12.375-88.746 44.8-120.319 27.31-28.16 65.28-43.947 106.24-43.947h66.135c12.375 0 22.615-10.24 21.335-22.613-9.39-103.68-78.080-174.507-180.055-186.454-10.24-1.706-20.905-2.134-32-2.134h-383.999c-11.947 0-23.467 0.854-34.561 2.56-108.8 13.654-178.773 94.72-178.773 210.774v298.668c0 117.76 95.573 213.33 213.334 213.33h383.999c119.465 0 201.815-74.665 212.055-188.585 1.28-12.375-8.96-22.615-21.335-22.615zM554.67 416.001h-255.999c-17.494 0-32.001-14.507-32.001-32s14.507-32 32.001-32h255.999c17.495 0 32 14.506 32 32s-14.505 32-32 32z"></path>
</svg>
